<?xml version="1.0" standalone="no"?>
<!DOCTYPE svg PUBLIC "-//W3C//DTD SVG 20010904//EN"
 "http://www.w3.org/TR/2001/REC-SVG-20010904/DTD/svg10.dtd">
<svg version="1.0" xmlns="http://www.w3.org/2000/svg"
 width="103.000000pt" height="103.000000pt" viewBox="0 0 103.000000 103.000000"
 preserveAspectRatio="xMidYMid meet">
<metadata>
Created by potrace 1.14, written by Peter Selinger 2001-2017
</metadata>
<g transform="translate(0.000000,103.000000) scale(0.100000,-0.100000)"
fill="#000000" stroke="none">
<path d="M0 935 l0 -85 215 0 215 0 0 -278 0 -278 295 0 c162 0 295 3 296 6 0
3 1 80 2 172 l2 167 -84 47 -83 46 -109 1 -108 0 -3 95 -3 95 -85 48 -85 48
-232 0 -233 1 0 -85z m828 -430 l-3 -60 -92 -3 -93 -3 0 63 0 63 95 0 96 1 -3
-61z"/>
<path d="M11 732 c-6 -2 -11 -10 -11 -18 0 -12 33 -14 194 -14 181 0 226 6
194 26 -13 8 -356 13 -377 6z"/>
<path d="M2 668 c7 -20 388 -21 388 -2 0 11 -37 14 -196 14 -152 0 -195 -3
-192 -12z"/>
<path d="M0 615 c0 -13 28 -15 194 -15 163 0 195 2 200 15 5 13 -21 15 -194
15 -171 0 -200 -2 -200 -15z"/>
<path d="M6 573 c-16 -17 2 -21 99 -22 85 -2 105 1 105 12 0 12 -20 15 -99 15
-54 1 -101 -2 -105 -5z"/>
<path d="M2 518 c3 -9 36 -14 106 -16 86 -2 102 0 102 13 0 12 -17 15 -106 15
-80 0 -105 -3 -102 -12z"/>
<path d="M5 471 c-17 -16 31 -21 203 -19 108 1 153 4 100 5 -54 2 -98 7 -98
12 0 8 -197 11 -205 2z"/>
<path d="M0 414 c0 -11 35 -14 195 -14 168 0 195 2 195 15 0 13 -26 15 -195
14 -159 -1 -195 -4 -195 -15z"/>
<path d="M56 363 c14 -10 57 -13 176 -11 225 4 212 23 -16 24 -151 0 -175 -2
-160 -13z"/>
<path d="M130 324 c0 -16 62 -28 153 -29 95 -1 107 1 107 16 0 16 -13 17 -130
17 -71 -1 -130 -2 -130 -4z"/>
<path d="M433 247 c-10 -16 8 -20 98 -21 89 -1 112 5 87 21 -17 10 -178 11
-185 0z"/>
<path d="M430 193 c0 -10 25 -13 102 -13 81 0 99 3 90 12 -18 18 -192 19 -192
1z"/>
<path d="M430 143 c0 -7 3 -13 8 -14 4 -1 136 -2 295 -3 253 -1 287 1 287 14
0 14 -36 16 -295 16 -240 1 -295 -2 -295 -13z"/>
<path d="M450 98 c0 -17 37 -20 283 -20 314 1 287 -1 287 15 0 9 -64 12 -285
12 -157 0 -285 -3 -285 -7z"/>
<path d="M544 48 c-11 -18 38 -23 249 -23 196 0 227 2 227 15 0 13 -32 15
-236 15 -130 0 -238 -3 -240 -7z"/>
</g>
</svg>
