<svg width="116" height="26" viewBox="0 0 116 26" fill="none" xmlns="http://www.w3.org/2000/svg">
<path d="M97.3323 25.7708L103.926 16.5319L97.5497 7.65527H102.948L106.499 12.7639L110.049 7.65527H115.448L109.035 16.5319L115.665 25.7708H110.339L106.499 20.3362L102.658 25.7708H97.3323Z" fill="#FBFBFB"/>
<path d="M57.2462 25.5919L53.0434 23.1644V0.229004L57.9331 2.90108L58.007 21.3529H59.8186H61.6301V25.5919H57.2462Z" fill="#FBFBFB"/>
<path d="M50.0407 10.6283L46.8886 12.4399V12.5123L50.0407 14.3239V23.1643V25.5917H37.1787L32.1064 23.1643V0.22998H44.9684L50.0407 2.65746V10.6283ZM37.1787 14.65V21.244H44.9684V14.65H37.1787ZM37.1787 4.57771V10.3022H44.9684V4.57771H37.1787Z" fill="#FBFBFB"/>
<path d="M94.9739 21.5555V25.7471H84.2621L80.1064 23.3468V10.0556L84.2621 7.65527H90.8181L94.9739 10.0556V18.6178H85.0144V21.5555H94.9739ZM85.0144 11.8468V14.9278H90.0658V11.8468H85.0144Z" fill="#FBFBFB"/>
<path d="M64.1063 11.8468V7.65529H74.8181L78.9738 10.0556V23.3468L74.8181 25.7471H68.2621L64.1063 23.3468V14.7845H74.0658V11.8468H64.1063ZM74.0658 21.5555V18.4745H69.0144V21.5555H74.0658Z" fill="#FBFBFB"/>
<path fill-rule="evenodd" clip-rule="evenodd" d="M0.0515747 10.7245V9.98867H9.83614L9.83327 10.7245H0.0515747ZM9.83834 9.42247H0.0515747V8.77089H9.84088L9.83834 9.42247ZM0.0515747 12.5084V13.2445H5.29822V12.5084H0.0515747ZM0.0515747 11.9422H5.29822V11.2907H0.0515747V11.9422ZM0.0515747 15.7643V15.0282H9.84624V15.7643H0.0515747ZM9.84624 14.462H0.0515747V13.8107H5.29822V14.1531H9.84624V14.462ZM3.01253 17.5482L4.5047 18.3569H9.84624V17.5482H3.01253ZM1.96781 16.982L0.765559 16.3305H9.84624V16.982H1.96781ZM9.84309 8.20469H0.0515747V7.396H9.84624L9.84309 8.20469Z" fill="#B7ED1C"/>
<path fill-rule="evenodd" clip-rule="evenodd" d="M15.6141 19.3813H10.7L10.7007 20.0498H15.6141L15.6141 19.3813ZM10.7034 22.5696L10.7026 21.8338H25.575V22.5696H10.7034ZM25.575 21.2676H10.702L10.7013 20.616H15.6141L15.6141 21.2672H25.575V21.2676ZM12.9378 24.3536L14.213 25.0896H25.575V24.3536H12.9378ZM11.9569 23.7874L10.8281 23.1358H25.575V23.7874H11.9569Z" fill="#B7ED1C"/>
<path fill-rule="evenodd" clip-rule="evenodd" d="M0 0.229004V4.48096H10.7188V18.3889H25.601V9.73712L21.408 7.40439H15.9748V2.70938L11.457 0.229004H0ZM20.679 11.5771H15.9562V14.6621H20.679V11.5771Z" fill="#B7ED1C"/>
</svg>
